<svg xmlns="http://www.w3.org/2000/svg" xmlns:xlink="http://www.w3.org/1999/xlink" width="48" height="48" viewBox="0 0 48 48">
  <defs>
    <clipPath id="clip-path">
      <rect id="Rectangle_25" data-name="Rectangle 25" width="48" height="48" transform="translate(806 1233)" fill="#fff" stroke="#707070" stroke-width="1"/>
    </clipPath>
    <linearGradient id="linear-gradient" x1="0.5" y1="1" x2="0.5" gradientUnits="objectBoundingBox">
      <stop offset="0" stop-color="#00b59c"/>
      <stop offset="1" stop-color="#9cffac"/>
    </linearGradient>
    <linearGradient id="linear-gradient-2" x1="0.5" y1="1" x2="0.5" gradientUnits="objectBoundingBox">
      <stop offset="0" stop-color="#c3ffe8"/>
      <stop offset="0.997" stop-color="#f0fff4"/>
    </linearGradient>
  </defs>
  <g id="Mask_Group_1" data-name="Mask Group 1" transform="translate(-806 -1233)" clip-path="url(#clip-path)">
    <g id="Group_117" data-name="Group 117" transform="translate(812.301 1233.765)">
      <path id="Path_15" data-name="Path 15" d="M95.036,7.408C87.5,7.408,79.69.423,79.613.353a1.361,1.361,0,0,0-1.829,0c-.078.071-7.867,7.055-15.423,7.055A1.361,1.361,0,0,0,61,8.77v16.3c0,13.208,9.824,18.486,17.213,21.307a1.361,1.361,0,0,0,.971,0C89.545,42.425,96.4,36.255,96.4,25.074V8.77A1.361,1.361,0,0,0,95.036,7.408Z" transform="translate(-61 0)" fill="url(#linear-gradient)"/>
      <path id="Path_16" data-name="Path 16" d="M160.53,151a9.53,9.53,0,1,0,9.53,9.53A9.541,9.541,0,0,0,160.53,151Zm3.685,9.131-4.084,4.084a1.361,1.361,0,0,1-1.925,0l-1.361-1.361a1.361,1.361,0,0,1,1.925-1.925l.4.4,3.122-3.122a1.361,1.361,0,1,1,1.925,1.925Z" transform="translate(-142.831 -137.295)" fill="url(#linear-gradient-2)"/>
    </g>
  </g>
</svg>
