<svg xmlns="http://www.w3.org/2000/svg" xmlns:xlink="http://www.w3.org/1999/xlink" width="48" height="48" viewBox="0 0 48 48">
  <defs>
    <clipPath id="clip-path">
      <rect id="Rectangle_27" data-name="Rectangle 27" width="48" height="48" transform="translate(1032 1268)" fill="#fff" stroke="#707070" stroke-width="1"/>
    </clipPath>
    <linearGradient id="linear-gradient" x1="0.5" x2="0.5" y2="1" gradientUnits="objectBoundingBox">
      <stop offset="0" stop-color="#9cffac"/>
      <stop offset="1" stop-color="#00b59c"/>
    </linearGradient>
  </defs>
  <g id="Mask_Group_3" data-name="Mask Group 3" transform="translate(-1032 -1268)" clip-path="url(#clip-path)">
    <g id="Group_122" data-name="Group 122" transform="translate(1032.753 1268.798)">
      <path id="Path_34" data-name="Path 34" d="M108.875,15.5A18.138,18.138,0,0,0,94.18,22.986a8.337,8.337,0,0,0,9.444,1.021,11,11,0,0,1,13.709,2.64,1.363,1.363,0,0,0,.945.489c.035,0,.068,0,.1,0a1.36,1.36,0,0,0,.9-.344l4.285-3.809A18.15,18.15,0,0,0,108.875,15.5Z" transform="translate(-85.628 -14.138)" fill="#004173"/>
      <path id="Path_35" data-name="Path 35" d="M80.048,20.024v5.812a1.362,1.362,0,1,1-2.724,0V20.024a16.8,16.8,0,1,0-33.6,0v5.812a1.362,1.362,0,0,1-2.724,0V20.024a19.524,19.524,0,1,1,39.048,0Z" transform="translate(-37.277 -0.5)" fill="#e2dff4"/>
      <path id="Path_36" data-name="Path 36" d="M275.524,20.024v5.812a1.362,1.362,0,1,1-2.724,0V20.024A16.819,16.819,0,0,0,256,3.224V.5a19.523,19.523,0,0,1,19.524,19.524Z" transform="translate(-232.753 -0.5)" fill="#bebcdd"/>
      <path id="Path_37" data-name="Path 37" d="M264.7,3.223V13.757a2.724,2.724,0,0,1-2.724,2.724H249.948a1.362,1.362,0,0,0-.886.328l-2.455,2.1a1.362,1.362,0,0,1-2.248-1.034v-.035A1.363,1.363,0,0,0,243,16.481h-.272A2.724,2.724,0,0,1,240,13.757V3.223A2.724,2.724,0,0,1,242.724.5h19.252A2.724,2.724,0,0,1,264.7,3.223Z" transform="translate(-218.206 -0.499)" fill="url(#linear-gradient)"/>
      <path id="Path_39" data-name="Path 39" d="M285.177,75.862a1.363,1.363,0,0,1-1.362,1.362h-1.453a1.362,1.362,0,1,1,0-2.724h1.453A1.363,1.363,0,0,1,285.177,75.862Zm6.538,0a1.363,1.363,0,0,1-1.362,1.362H288.9a1.362,1.362,0,1,1,0-2.724h1.453A1.363,1.363,0,0,1,291.716,75.862Zm6.538,0a1.363,1.363,0,0,1-1.362,1.362h-1.453a1.362,1.362,0,0,1,0-2.724h1.453A1.363,1.363,0,0,1,298.254,75.862Z" transform="translate(-255.483 -67.78)" fill="#fff"/>
      <path id="Path_41" data-name="Path 41" d="M407.9,278.848h-4.54A1.362,1.362,0,0,1,402,277.486V265.862a1.362,1.362,0,0,1,1.362-1.362h4.54a4.091,4.091,0,0,1,4.086,4.086v6.175A4.091,4.091,0,0,1,407.9,278.848Z" transform="translate(-365.495 -240.526)" fill="#002541"/>
      <path id="Path_42" data-name="Path 42" d="M8.627,278.848H4.086A4.091,4.091,0,0,1,0,274.761v-6.175A4.091,4.091,0,0,1,4.086,264.5h4.54a1.362,1.362,0,0,1,1.362,1.362v11.624A1.362,1.362,0,0,1,8.627,278.848Z" transform="translate(0 -240.526)" fill="#003156"/>
      <path id="Path_43" data-name="Path 43" d="M263.989,403.306h-8.627a1.362,1.362,0,1,1,0-2.724h8.627a2.727,2.727,0,0,0,2.724-2.724v-4a1.362,1.362,0,1,1,2.724,0v4A5.455,5.455,0,0,1,263.989,403.306Z" transform="translate(-230.934 -356.903)" fill="#e2dff4"/>
      <path id="Path_44" data-name="Path 44" d="M91.632,252.841A3.632,3.632,0,0,1,88,249.209V236.132a3.632,3.632,0,0,1,7.265,0v13.077A3.632,3.632,0,0,1,91.632,252.841Z" transform="translate(-80.009 -211.432)" fill="#004173"/>
      <path id="Path_45" data-name="Path 45" d="M347.632,252.841A3.632,3.632,0,0,1,344,249.209V236.132a3.632,3.632,0,1,1,7.265,0v13.077A3.632,3.632,0,0,1,347.632,252.841Z" transform="translate(-312.762 -211.432)" fill="#003156"/>
    </g>
  </g>
</svg>
